<svg width="44" height="44" viewBox="0 0 44 44" fill="none" xmlns="http://www.w3.org/2000/svg">
  <rect x="4" y="8" width="36" height="28" rx="2"
    stroke="black"
    stroke-width="2"
    stroke-linecap="round"
    stroke-linejoin="round" />

  <rect x="8" y="12" width="4" height="4" rx="1"
    stroke="black"
    stroke-width="1.5" />
  <rect x="14" y="12" width="4" height="4" rx="1"
    stroke="black"
    stroke-width="1.5" />
  <rect x="20" y="12" width="4" height="4" rx="1"
    stroke="black"
    stroke-width="1.5" />
  <rect x="26" y="12" width="4" height="4" rx="1"
    stroke="black"
    stroke-width="1.5" />
  <rect x="32" y="12" width="4" height="4" rx="1"
    stroke="black"
    stroke-width="1.5" />

  <rect x="8" y="18" width="4" height="4" rx="1"
    stroke="black"
    stroke-width="1.5" />
  <rect x="14" y="18" width="4" height="4" rx="1"
    stroke="black"
    stroke-width="1.5" />
  <rect x="20" y="18" width="4" height="4" rx="1"
    stroke="black"
    stroke-width="1.5" />
  <rect x="26" y="18" width="4" height="4" rx="1"
    stroke="black"
    stroke-width="1.5" />
  <rect x="32" y="18" width="4" height="4" rx="1"
    stroke="black"
    stroke-width="1.5" />

  <rect x="8" y="28" width="28" height="4" rx="1"
    stroke="black"
    stroke-width="1.5" />
</svg>