<svg width="21" height="21" viewBox="0 0 21 21" fill="none" xmlns="http://www.w3.org/2000/svg">
<g clip-path="url(#clip0_3855_5701)">
<path d="M6.33341 16.4622C7.25389 16.4622 8.00008 15.716 8.00008 14.7956C8.00008 13.8751 7.25389 13.1289 6.33341 13.1289C5.41294 13.1289 4.66675 13.8751 4.66675 14.7956C4.66675 15.716 5.41294 16.4622 6.33341 16.4622Z" stroke="#FAFAFA" stroke-linecap="round" stroke-linejoin="round"/>
<path d="M14.6667 16.4622C15.5871 16.4622 16.3333 15.716 16.3333 14.7956C16.3333 13.8751 15.5871 13.1289 14.6667 13.1289C13.7462 13.1289 13 13.8751 13 14.7956C13 15.716 13.7462 16.4622 14.6667 16.4622Z" stroke="#FAFAFA" stroke-linecap="round" stroke-linejoin="round"/>
<path d="M4.66675 14.7949V14.7949C3.74627 14.7949 3.00008 14.0487 3.00008 13.1283V11.4616M2.16675 4.79492H9.33341C10.438 4.79492 11.3334 5.69035 11.3334 6.79492V14.7949M8.00008 14.7949H13.0001M16.3334 14.7949V14.7949C17.2539 14.7949 18.0001 14.0487 18.0001 13.1283V9.79492M18.0001 9.79492H11.3334M18.0001 9.79492L16.0827 6.59926C15.7212 5.99685 15.0702 5.62826 14.3677 5.62826H11.3334" stroke="#FAFAFA" stroke-linecap="round" stroke-linejoin="round"/>
<path d="M4.5 14.6289V14.6289C3.57953 14.6289 2.83333 13.8827 2.83333 12.9622V11.2956M2 4.62891H9.16667C10.2712 4.62891 11.1667 5.52434 11.1667 6.62891V14.6289M8 14.6289H12.8333M16.5 14.6289V14.6289C17.2364 14.6289 17.8333 14.032 17.8333 13.2956V9.62891M17.8333 9.62891H11.1667M17.8333 9.62891L15.9159 6.43325C15.5545 5.83084 14.9035 5.46224 14.201 5.46224H11.1667" stroke="#FAFAFA" stroke-linecap="round" stroke-linejoin="round"/>
<path d="M3 6.53711H6.33333" stroke="#FAFAFA" stroke-linecap="round" stroke-linejoin="round"/>
<path d="M1.40918 8.35547H4.74251" stroke="#FAFAFA" stroke-linecap="round" stroke-linejoin="round"/>
<path d="M3 10.1738H6.33333" stroke="#FAFAFA" stroke-linecap="round" stroke-linejoin="round"/>
</g>
<defs>
<clipPath id="clip0_3855_5701">
<rect width="20" height="20" fill="white" transform="translate(0.5 0.628906)"/>
</clipPath>
</defs>
</svg>
