<svg width="41" height="40" viewBox="0 0 41 40" fill="none" xmlns="http://www.w3.org/2000/svg">
<path d="M20.9275 18.1455V18.6455L21.4275 18.6455C22.0912 18.6455 22.7386 18.8513 23.2806 19.2345C23.8225 19.6176 24.2323 20.1593 24.4536 20.785C24.4723 20.8379 24.4804 20.894 24.4774 20.95C24.4744 21.0061 24.4604 21.061 24.4362 21.1116C24.412 21.1622 24.3781 21.2076 24.3363 21.2451C24.2946 21.2826 24.2459 21.3116 24.193 21.3303C24.1401 21.3489 24.084 21.357 24.0279 21.354C23.9719 21.351 23.917 21.337 23.8664 21.3128C23.7641 21.264 23.6855 21.1765 23.6477 21.0696L23.6477 21.0693C23.4853 20.6103 23.1845 20.2129 22.7869 19.9318C22.3893 19.6508 21.9143 19.4999 21.4273 19.5L20.9275 19.5002V20V23.7091V24.2091H21.4275C22.2786 24.2091 23.0948 24.5472 23.6966 25.149C24.2984 25.7508 24.6365 26.5671 24.6365 27.4181C24.6365 28.2692 24.2984 29.0855 23.6966 29.6873C23.0948 30.2891 22.2786 30.6272 21.4275 30.6272H20.9275V31.1272V31.5545H20.0729V31.1272V30.6272L19.5729 30.6272C18.9092 30.6272 18.2618 30.4214 17.7198 30.0382C17.1779 29.655 16.768 29.1132 16.5467 28.4875L16.5469 28.4874L16.5418 28.4743C16.5213 28.421 16.5116 28.3641 16.5134 28.307C16.5153 28.2499 16.5285 28.1938 16.5524 28.1419C16.5763 28.09 16.6104 28.0434 16.6526 28.0049L16.3166 27.6366L16.6526 28.0049C16.6948 27.9664 16.7443 27.9368 16.7982 27.9177C16.852 27.8987 16.9092 27.8907 16.9662 27.8941C17.0232 27.8975 17.079 27.9124 17.1302 27.9377C17.1814 27.9631 17.2269 27.9985 17.2642 28.0418C17.3015 28.085 17.3297 28.1354 17.3472 28.1898L17.3495 28.1968L17.352 28.2038C17.6765 29.1185 18.548 29.7727 19.5729 29.7727H20.0729V29.2727V25.5636V25.0636H19.5729C18.7218 25.0636 17.9056 24.7255 17.3038 24.1237C16.702 23.5219 16.3639 22.7057 16.3639 21.8546C16.3639 21.0035 16.702 20.1872 17.3038 19.5854C17.9056 18.9836 18.7218 18.6455 19.5729 18.6455H20.0729V18.1455V17.7183H20.9275V18.1455ZM20.0729 20V19.5H19.5729C18.9485 19.5 18.3496 19.7481 17.908 20.1897C17.4665 20.6312 17.2184 21.2301 17.2184 21.8546C17.2184 22.479 17.4665 23.0779 17.908 23.5195C18.3496 23.961 18.9485 24.2091 19.5729 24.2091H20.0729V23.7091V20ZM20.9275 29.2727V29.7727H21.4275C22.0519 29.7727 22.6508 29.5246 23.0924 29.083C23.5339 28.6415 23.782 28.0426 23.782 27.4181C23.782 26.7937 23.5339 26.1948 23.0924 25.7532C22.6508 25.3117 22.0519 25.0636 21.4275 25.0636H20.9275V25.5636V29.2727Z" fill="#FAFAFA" stroke="#FAFAFA"/>
<path d="M13.2057 12.5776L13.5219 12.6997C17.8707 14.3796 23.1083 14.3796 27.457 12.6979L27.7695 12.5771L28.0001 12.8202C29.8981 14.8209 31.4858 17.0947 32.7105 19.5657L32.7115 19.5676C33.9873 22.1702 34.7037 24.8132 34.5867 27.1299L34.5867 27.13C34.4723 29.3911 33.5716 31.3571 31.5218 32.8058L31.5218 32.8059C29.4129 34.2959 25.9467 35.3334 20.5354 35.3334C15.1198 35.3334 11.6397 34.314 9.51316 32.842L9.51293 32.8419C7.44943 31.4118 6.53763 29.4719 6.41014 27.2372L13.2057 12.5776ZM13.2057 12.5776L12.9752 12.826M13.2057 12.5776L12.9752 12.826M12.9752 12.826C11.1573 14.7855 9.46566 17.1896 8.25095 19.6927L8.25091 19.6928M12.9752 12.826L8.25091 19.6928M8.25091 19.6928C6.98037 22.3122 6.2784 24.9431 6.41013 27.237L8.25091 19.6928ZM30.3428 6.18124C30.7832 6.39909 31.1642 6.60746 31.4775 6.79415L28.3457 11.3724L28.1141 11.711L28.401 12.0043C30.3394 13.986 32.1697 16.5162 33.4805 19.1918C34.7935 21.872 35.5679 24.6623 35.441 27.1734C35.3151 29.6636 34.3054 31.8861 32.0163 33.5034C29.7051 35.1362 26.0382 36.188 20.5364 36.188C15.0332 36.188 11.3544 35.155 9.02802 33.544C6.72448 31.9488 5.6991 29.7542 5.55803 27.2855C5.41571 24.795 6.17576 22.0151 7.48354 19.32C8.7889 16.6298 10.6229 14.0597 12.5812 11.9991L12.8589 11.707L12.6323 11.3736L9.52247 6.79779C9.67984 6.70509 9.8536 6.60734 10.043 6.50644L10.043 6.50644L10.0447 6.50552C10.2353 6.40304 10.4408 6.29755 10.6614 6.19001L10.8573 6.09446C13.1034 5.02389 16.6645 3.80933 20.5364 3.80933C24.4384 3.80933 27.9975 5.04271 30.2165 6.11992C30.2165 6.11993 30.2165 6.11993 30.2165 6.11993L30.3412 6.18044C30.3417 6.18071 30.3422 6.18097 30.3428 6.18124ZM26.7245 12.059L26.8779 12.0045L26.9698 11.8702L29.7117 7.86165L30.2968 7.00623L29.2631 7.08066C26.6696 7.26739 23.6003 7.87467 20.6554 8.72728C18.6714 9.30043 16.4387 9.21917 14.3339 8.83094C13.8046 8.73281 13.279 8.61601 12.758 8.48074L11.4726 8.147L12.2188 9.24561L13.9991 11.867L14.091 12.0023L14.245 12.0571C18.1692 13.4542 22.7996 13.4541 26.7245 12.059ZM12.08 6.48023L10.8004 7.02334L12.1328 7.41973C12.8897 7.64489 13.6821 7.8412 14.4877 7.99034L14.4881 7.99042C16.523 8.36523 18.6079 8.42967 20.4168 7.9057L20.4175 7.90549C22.3859 7.33204 24.388 6.88104 26.4122 6.55508L26.4768 5.58267C24.7353 5.05833 22.6905 4.66385 20.5354 4.66385C17.2536 4.66385 14.2063 5.57774 12.08 6.48023Z" fill="#FAFAFA" stroke="#FAFAFA"/>
</svg>
