<svg width="20" height="21" viewBox="0 0 20 21" fill="none" xmlns="http://www.w3.org/2000/svg">
<path d="M4.19902 15.7939L4.19879 15.7937C3.80106 15.4971 3.42337 15.0173 3.14474 14.462C2.86606 13.9065 2.70825 13.3189 2.70825 12.8279V6.62786C2.70825 5.55199 3.52142 4.37306 4.53275 3.99643L4.53371 3.99607L8.69163 2.43789C8.69171 2.43786 8.69178 2.43783 8.69186 2.4378C9.03286 2.31041 9.50108 2.23828 9.99158 2.23828C10.4821 2.23828 10.9503 2.31041 11.2913 2.4378C11.2914 2.43783 11.2915 2.43786 11.2915 2.43789L15.4495 3.99607L15.4504 3.99643C16.4618 4.37306 17.2749 5.55199 17.2749 6.62786V12.8195C17.2749 13.315 17.1169 13.9026 16.8386 14.4565C16.5602 15.0103 16.1826 15.4884 15.7844 15.7854L15.7841 15.7855L12.2008 18.4605L12.2008 18.4605L12.1946 18.4652C11.6036 18.921 10.8156 19.1612 9.99992 19.1612C9.18563 19.1612 8.39342 18.9216 7.78145 18.4682C7.78129 18.4681 7.78113 18.468 7.78098 18.4678L4.19902 15.7939ZM8.78346 2.67608L8.78279 2.67633L4.62446 4.23466L4.62375 4.23493C4.15034 4.41315 3.74244 4.78377 3.45631 5.19774C3.17001 5.61197 2.96658 6.12605 2.96658 6.6362V12.8279C2.96658 13.3265 3.13759 13.8797 3.37688 14.3571C3.61605 14.8343 3.95571 15.3002 4.35077 15.5952L4.35081 15.5952L7.93381 18.2699C8.51665 18.7058 9.27192 18.907 10.001 18.907C10.7302 18.907 11.4865 18.7058 12.0727 18.2712L12.074 18.2702L15.6574 15.5952L15.6583 15.5945C16.0563 15.296 16.396 14.8309 16.6346 14.3536C16.8733 13.8762 17.0416 13.3255 17.0416 12.8279V6.62786C17.0416 6.12086 16.8374 5.6088 16.5519 5.19566C16.2661 4.78227 15.8597 4.41109 15.3892 4.22843L15.3892 4.22839L15.3837 4.22633L11.2254 2.66799L11.2254 2.66791L11.2163 2.6647C10.8615 2.53947 10.4168 2.4861 9.9996 2.48724C9.58324 2.48838 9.1376 2.54394 8.78346 2.67608Z" fill="#FAFAFA" stroke="#FAFAFA"/>
<path d="M8.52973 11.3991L8.88328 11.7527L9.23684 11.3991L12.3785 8.25746C12.4 8.23593 12.4308 8.22266 12.4666 8.22266C12.5025 8.22266 12.5332 8.23593 12.5547 8.25746C12.5763 8.27899 12.5895 8.30972 12.5895 8.34557C12.5895 8.38142 12.5763 8.41216 12.5547 8.43369L8.9714 12.017C8.95672 12.0317 8.94267 12.0401 8.92981 12.0453C8.91649 12.0507 8.90097 12.0539 8.88328 12.0539C8.8656 12.0539 8.85008 12.0507 8.83676 12.0453C8.8239 12.0401 8.80985 12.0317 8.79517 12.017L7.4535 10.6754C7.43198 10.6538 7.4187 10.6231 7.4187 10.5872C7.4187 10.5514 7.43198 10.5207 7.4535 10.4991C7.47503 10.4776 7.50577 10.4643 7.54162 10.4643C7.57747 10.4643 7.6082 10.4776 7.62973 10.4991L8.52973 11.3991Z" fill="#FAFAFA" stroke="#FAFAFA"/>
</svg>
