<svg width="40" height="40" viewBox="0 0 40 40" fill="none" xmlns="http://www.w3.org/2000/svg">
<path d="M11.6666 11.6667V8.33339C11.6666 7.36818 11.946 6.42362 12.4711 5.6137C12.9961 4.80379 13.7443 4.16315 14.6254 3.76912C15.5065 3.37509 16.4829 3.24451 17.4366 3.39313C18.3903 3.54176 19.2805 3.96325 20 4.60672C20.7194 3.96325 21.6097 3.54176 22.5634 3.39313C23.517 3.24451 24.4934 3.37509 25.3745 3.76912C26.2556 4.16315 27.0038 4.80379 27.5289 5.6137C28.0539 6.42362 28.3333 7.36818 28.3333 8.33339V11.6667H30.8333C31.4963 11.6667 32.1322 11.9301 32.6011 12.399C33.0699 12.8678 33.3333 13.5037 33.3333 14.1667V30.8417C33.3333 32.3866 32.7196 33.8682 31.6272 34.9606C30.5348 36.053 29.0532 36.6667 27.5083 36.6667H13.3333C11.5652 36.6667 9.86949 35.9643 8.61925 34.7141C7.369 33.4639 6.66663 31.7682 6.66663 30.0001V14.1667C6.66663 13.5037 6.93002 12.8678 7.39886 12.399C7.8677 11.9301 8.50358 11.6667 9.16663 11.6667H11.6666ZM22.725 34.1667C22.0451 33.1914 21.6814 32.0306 21.6833 30.8417V14.1667H9.16663V30.0001C9.16663 30.5472 9.2744 31.089 9.48379 31.5946C9.69319 32.1001 10.0001 32.5594 10.387 32.9463C10.7739 33.3332 11.2333 33.6402 11.7388 33.8496C12.2443 34.0589 12.7861 34.1667 13.3333 34.1667H22.725ZM19.1666 11.6667V8.33339C19.1666 7.67035 18.9032 7.03446 18.4344 6.56562C17.9656 6.09678 17.3297 5.83339 16.6666 5.83339C16.0036 5.83339 15.3677 6.09678 14.8989 6.56562C14.43 7.03446 14.1666 7.67035 14.1666 8.33339V11.6667H19.1666ZM21.6666 11.6667H25.8333V8.33339C25.8333 7.81878 25.6746 7.31669 25.3787 6.89566C25.0828 6.47463 24.6642 6.15517 24.18 5.98089C23.6958 5.8066 23.1696 5.78599 22.6732 5.92186C22.1769 6.05773 21.7346 6.34346 21.4066 6.74005C21.575 7.24005 21.6666 7.77672 21.6666 8.33339V11.6667ZM24.1833 30.8417C24.1833 31.7236 24.5336 32.5693 25.1572 33.1929C25.7807 33.8164 26.6264 34.1667 27.5083 34.1667C28.3901 34.1667 29.2359 33.8164 29.8594 33.1929C30.483 32.5693 30.8333 31.7236 30.8333 30.8417V14.1667H24.1833V30.8417Z" fill="white"/>
</svg>
